<svg xmlns="http://www.w3.org/2000/svg" version="1.1" xmlns:xlink="http://www.w3.org/1999/xlink" xmlns:svgjs="http://svgjs.dev/svgjs" width="2000" height="1500" viewBox="0 0 2000 1500"><rect width="2000" height="1500" fill="#ffffff"></rect><g transform="matrix(0.75,0,0,0.75,249.09154779283585,313.00045968125914)"><svg viewBox="0 0 396 231" data-background-color="#ffffff" preserveAspectRatio="xMidYMid meet" height="1166" width="2000" xmlns="http://www.w3.org/2000/svg" xmlns:xlink="http://www.w3.org/1999/xlink"><g id="tight-bounds" transform="matrix(1,0,0,1,0.24008861730862918,-0.06587958661904736)"><svg viewBox="0 0 395.52 231.13203874770636" height="231.13203874770636" width="395.52"><g><svg viewBox="0 0 395.52 231.13203874770636" height="231.13203874770636" width="395.52"><g><svg viewBox="0 0 395.52 231.13203874770636" height="231.13203874770636" width="395.52"><g id="textblocktransform"><svg viewBox="0 0 395.52 231.13203874770636" height="231.13203874770636" width="395.52" id="textblock"><g><svg viewBox="0 0 395.52 173.8616657995485" height="173.8616657995485" width="395.52"><path d="M394.594 37.29C392.735 19.243 387.435 14.226 387.435 14.226 371.165-4.362 350.86-0.356 332.619 2.315 300.414 2.424 268.339 6.394 236.208 8.523 168.767 8.848 100.749 3.506 33.643 16.681 27.339 20.723-6.54 17.475 1.121 39.6 3.129 48.804 10.456 59.018 10.232 67.464 11.236 68.944 12.631 65.551 13.226 67.681 15.309 73.42 18.711 70.713 21.501 74.105 17.614 83.165 20.403 90.708 23.062 98.613 18.377 100.67 12.371 99.696 9.675 106.517 9.396 111.462 7.89 110.524 6.235 110.307 5.026 110.163 2.59 110.704 2.999 112.256 4.394 117.562-1.594 120.63 2.162 125.828-0.422 131.458 3.948 136.331 3.353 142.431 3.278 143.658 3.687 144.704 4.338 144.993 7.22 146.545 3.018 149.577 3.464 152.862 33.029 175.312 65.104 159.792 95.394 170.114 103.259 162.896 97.346 172.677 100.489 171.161 102.943 169.392 104.728 176.719 107.499 172.569 107.927 171.378 107.276 168.562 108.8 169.104 109.6 169.392 110.307 169.32 110.418 167.66 110.586 165.169 109.117 166.722 108.726 165.422 112.947 158.853 111.906 174.482 115.866 173.832 115.68 171.919 114.528 169.176 116.889 169.537 119.232 166.794 119.306 164.52 121.389 170.692 121.463 172.027 121.835 172.966 122.43 173.615 128.938 166.902 135.409 175.998 142.233 172.966 146.417 169.645 150.433 174.77 154.672 173.507 156.16 172.496 157.666 170.692 159.098 173.724 176.632 174.373 195.319 171.666 211.943 173.832 256.364 169.789 303.836 175.492 350.674 170.15 361.719 168.093 373.192 165.169 383.958 162.823 383.958 162.823 392.679 156.399 392.679 127.524S394.538 102.258 394.817 79.267C395.096 56.275 396.398 55.337 394.538 37.29Z" opacity="1" fill="#096a2e" data-fill-palette-color="tertiary"></path><g transform="matrix(1,0,0,1,55.76832,26.068561146666667)"><svg width="283.98335999999995" viewBox="-0.3 -36 116.64 50" height="121.72454350621516" data-palette-color="#ffffff"><path d="M10.15 4.35L10.15 4.35Q7.45 4.35 5.05 3.38 2.65 2.4 1.18 0.4-0.3-1.6-0.3-4.6L-0.3-4.6Q-0.3-7.2 0.73-8.65 1.75-10.1 3.25-10.7 4.75-11.3 6.1-11.3L6.1-11.3Q4.75-9.85 4.05-8.1 3.35-6.35 3.35-4.6L3.35-4.6Q3.35-2.75 4.17-1.15 5 0.45 6.7 1.43 8.4 2.4 11 2.4L11 2.4Q13.25 2.4 15.4 1.58 17.55 0.75 18.93-0.88 20.3-2.5 20.3-4.9L20.3-4.9Q20.3-7.05 19.2-8.6 18.1-10.15 16.38-11.35 14.65-12.55 12.7-13.65 10.75-14.75 9.03-15.98 7.3-17.2 6.2-18.8 5.1-20.4 5.1-22.65L5.1-22.65Q5.1-24.75 6.1-27.05 7.1-29.35 8.97-31.4 10.85-33.45 13.48-34.73 16.1-36 19.35-36L19.35-36Q22.3-36 23.45-34.58 24.6-33.15 24.6-31L24.6-31Q24.6-29.2 23.98-27.13 23.35-25.05 22.45-23.18 21.55-21.3 20.75-20L20.75-20Q19.85-20.2 19.48-20.78 19.1-21.35 19.1-22.15L19.1-22.15Q19.1-23.2 19.55-24.55 20-25.9 20.58-27.35 21.15-28.8 21.6-30.18 22.05-31.55 22.05-32.65L22.05-32.65Q22.05-33.65 21.45-34.23 20.85-34.8 19.25-34.8L19.25-34.8Q16.9-34.8 14.9-33.7 12.9-32.6 11.4-30.88 9.9-29.15 9.08-27.25 8.25-25.35 8.25-23.8L8.25-23.8Q8.25-21.95 9.33-20.63 10.4-19.3 12.1-18.23 13.8-17.15 15.73-16.07 17.65-15 19.35-13.7 21.05-12.4 22.13-10.63 23.2-8.85 23.2-6.3L23.2-6.3Q23.2-3.7 22.05-1.73 20.9 0.25 18.98 1.6 17.05 2.95 14.75 3.65 12.45 4.35 10.15 4.35ZM30.55 1.5L30.55 1.5Q28.85 1.5 27.82-0.03 26.8-1.55 26.8-3.55L26.8-3.55Q26.8-5 27.27-6.9 27.75-8.8 28.45-10.65 29.15-12.5 29.9-13.7 30.65-14.9 31.2-14.9L31.2-14.9Q31.45-14.9 32.05-14.63 32.65-14.35 33.05-13.9L33.05-13.9Q32.5-13.05 31.7-11.3 30.9-9.55 30.3-7.55 29.7-5.55 29.7-3.85L29.7-3.85Q29.7-3.45 29.8-2.63 29.9-1.8 30.3-1.15 30.7-0.5 31.5-0.5L31.5-0.5Q32.45-0.5 33.45-1.48 34.45-2.45 35.47-4 36.5-5.55 37.45-7.35 38.4-9.15 39.22-10.8 40.05-12.45 40.6-13.55L40.6-13.55Q40.9-13.5 41.47-13.35 42.05-13.2 42.52-12.95 43-12.7 43-12.25L43-12.25Q43-12.05 42.5-10.93 42-9.8 41.32-8.18 40.65-6.55 40.15-4.9 39.65-3.25 39.65-2L39.65-2Q39.65-1.1 40.02-0.55 40.4 0 41.3 0L41.3 0Q42.35 0 43.85-0.95 45.35-1.9 46.9-3.73 48.45-5.55 49.65-8.1L49.65-8.1 50.3-7.65Q49.25-4.95 47.55-2.88 45.85-0.8 43.95 0.35 42.05 1.5 40.25 1.5L40.25 1.5Q38.95 1.5 38.17 1 37.4 0.5 37.07-0.35 36.75-1.2 36.75-2.2L36.75-2.2Q36.75-2.8 36.85-3.43 36.95-4.05 37.1-4.7L37.1-4.7Q36.2-3.05 35.15-1.63 34.1-0.2 32.95 0.65 31.8 1.5 30.55 1.5ZM64.85 1L64.85 1Q63.1 1 62.22 0.1 61.35-0.8 61.35-2.2L61.35-2.2Q61.35-3.25 61.72-4.4 62.1-5.55 62.45-6.78 62.8-8 62.8-9.15L62.8-9.15Q62.8-10.55 62.22-11.08 61.65-11.6 60.8-11.6L60.8-11.6Q59.25-11.6 57.65-10.33 56.05-9.05 54.55-7.08 53.05-5.1 51.75-3 50.45-0.9 49.45 0.75L49.45 0.75Q48.65 0.75 47.92 0.48 47.2 0.2 46.8-0.35L46.8-0.35Q46.8-0.6 47.32-1.9 47.85-3.2 48.55-5.1 49.25-7 49.8-9 50.35-11 50.35-12.65L50.35-12.65Q50.65-13 51.3-13.35 51.95-13.7 52.65-13.7L52.65-13.7Q54-13.7 54-12.4L54-12.4Q54-11.6 53.55-9.73 53.1-7.85 52.4-5.8L52.4-5.8Q53.75-7.85 55.42-9.88 57.1-11.9 59-13.25 60.9-14.6 62.8-14.6L62.8-14.6Q64.75-14.6 65.62-13.2 66.5-11.8 66.5-10.1L66.5-10.1Q66.5-8.55 66-7.23 65.5-5.9 64.97-4.67 64.45-3.45 64.45-2.2L64.45-2.2Q64.45-1.15 64.87-0.73 65.3-0.3 65.95-0.3L65.95-0.3Q67.2-0.3 68.45-1.48 69.7-2.65 70.87-4.45 72.05-6.25 72.95-8.1L72.95-8.1 73.5-7.45Q72.45-5 71.15-3.1 69.85-1.2 68.3-0.1 66.75 1 64.85 1ZM88.14 1L88.14 1Q86.39 1 85.52 0.1 84.64-0.8 84.64-2.2L84.64-2.2Q84.64-3.25 85.02-4.4 85.39-5.55 85.74-6.78 86.09-8 86.09-9.15L86.09-9.15Q86.09-10.55 85.52-11.08 84.94-11.6 84.09-11.6L84.09-11.6Q82.54-11.6 80.94-10.33 79.34-9.05 77.84-7.08 76.34-5.1 75.04-3 73.74-0.9 72.74 0.75L72.74 0.75Q71.94 0.75 71.22 0.48 70.49 0.2 70.09-0.35L70.09-0.35Q70.09-0.6 70.62-1.9 71.14-3.2 71.84-5.1 72.54-7 73.09-9 73.64-11 73.64-12.65L73.64-12.65Q73.94-13 74.59-13.35 75.24-13.7 75.94-13.7L75.94-13.7Q77.29-13.7 77.29-12.4L77.29-12.4Q77.29-11.6 76.84-9.73 76.39-7.85 75.69-5.8L75.69-5.8Q77.04-7.85 78.72-9.88 80.39-11.9 82.29-13.25 84.19-14.6 86.09-14.6L86.09-14.6Q88.04-14.6 88.92-13.2 89.79-11.8 89.79-10.1L89.79-10.1Q89.79-8.55 89.29-7.23 88.79-5.9 88.27-4.67 87.74-3.45 87.74-2.2L87.74-2.2Q87.74-1.15 88.17-0.73 88.59-0.3 89.24-0.3L89.24-0.3Q90.49-0.3 91.74-1.48 92.99-2.65 94.17-4.45 95.34-6.25 96.24-8.1L96.24-8.1 96.79-7.45Q95.74-5 94.44-3.1 93.14-1.2 91.59-0.1 90.04 1 88.14 1ZM97.44 14L97.44 14Q96.19 14 95.24 13.33 94.29 12.65 94.29 11.35L94.29 11.35Q94.29 9.75 95.09 8.5 95.89 7.25 97.24 6.2 98.59 5.15 100.34 4.2 102.09 3.25 103.99 2.3L103.99 2.3Q104.69 0.45 105.42-1.83 106.14-4.1 106.79-6.85L106.79-6.85Q105.19-4.25 103.37-2.38 101.54-0.5 99.49-0.5L99.49-0.5Q98.54-0.5 97.62-0.93 96.69-1.35 96.09-2.25 95.49-3.15 95.49-4.55L95.49-4.55Q95.49-5.95 95.97-7.8 96.44-9.65 97.14-11.4 97.84-13.15 98.59-14.3 99.34-15.45 99.89-15.45L99.89-15.45Q100.09-15.45 100.62-15.3 101.14-15.15 101.62-14.88 102.09-14.6 102.09-14.3L102.09-14.3Q101.64-13.65 101.09-12.45 100.54-11.25 100.02-9.78 99.49-8.3 99.14-6.9 98.79-5.5 98.79-4.5L98.79-4.5Q98.79-3.6 99.19-3.05 99.59-2.5 100.59-2.5L100.59-2.5Q101.54-2.5 102.72-3.43 103.89-4.35 105.07-5.8 106.24-7.25 107.24-8.9L107.24-8.9Q107.39-9.45 107.52-10.03 107.64-10.6 107.74-11.2L107.74-11.2Q107.89-11.9 108.47-12.83 109.04-13.75 110.29-13.75L110.29-13.75Q110.54-13.75 110.79-13.73 111.04-13.7 111.34-13.6L111.34-13.6Q111.34-12.8 110.87-10.63 110.39-8.45 109.52-5.55 108.64-2.65 107.44 0.4L107.44 0.4Q109.79-0.5 112.04-2.58 114.29-4.65 115.69-8.1L115.69-8.1 116.34-7.6Q115.59-5.2 114.07-3.43 112.54-1.65 110.64-0.38 108.74 0.9 106.89 1.75L106.89 1.75Q105.59 4.95 104.07 7.75 102.54 10.55 100.87 12.28 99.19 14 97.44 14ZM97.19 12.4L97.19 12.4Q97.94 12.4 99.72 10.43 101.49 8.45 103.49 3.5L103.49 3.5Q101.44 4.6 99.69 5.68 97.94 6.75 96.89 8 95.84 9.25 95.84 10.9L95.84 10.9Q95.84 11.3 96.14 11.85 96.44 12.4 97.19 12.4Z" opacity="1" transform="matrix(1,0,0,1,0,0)" fill="#ffffff" class="wordmark-text-0" data-fill-palette-color="quaternary" id="text-0"></path></svg></g></svg></g><g transform="matrix(1,0,0,1,75.54432000000001,202.59790913232175)"><svg viewBox="0 0 244.43135999999996 28.53412961538461" height="28.53412961538461" width="244.43135999999996"><g transform="matrix(1,0,0,1,0,0)"><svg width="244.43135999999996" viewBox="1 -37.9 332.76 38.85" height="28.53412961538461" data-palette-color="#096a2e"><path d="M10.9 0.05L6.75 0 2.45 0.2Q1 0.2 1-0.4L1-0.4Q1-1.1 1.75-1.35L1.75-1.35Q3.35-1.95 4.55-4.03 5.75-6.1 10.58-16.57 15.4-27.05 19.15-35.05L19.15-35.05Q19.5-35.8 19.78-36 20.05-36.2 20.58-36.2 21.1-36.2 21.25-36 21.4-35.8 21.8-34.65 22.2-33.5 22.43-32.9 22.65-32.3 23.15-30.95 23.65-29.6 24.75-26.9 25.85-24.2 29.78-15.08 33.7-5.95 34.3-4.73 34.9-3.5 35.95-2.63 37-1.75 37.77-1.68 38.55-1.6 39.08-1.43 39.6-1.25 39.6-0.65L39.6-0.65Q39.6 0.1 38.25 0.1L38.25 0.1 33.75-0.2 29.1 0Q27.55 0 27.13-0.13 26.7-0.25 26.7-0.65 26.7-1.05 27.1-1.28 27.5-1.5 27.95-1.58 28.4-1.65 28.8-2.02 29.2-2.4 29.2-3.28 29.2-4.15 27.95-7.55 26.7-10.95 25.85-12.55L25.85-12.55Q25.4-13.4 23.8-13.4L23.8-13.4 17.75-13.3 15.1-13.3Q12.85-13.3 12.28-13.05 11.7-12.8 11.33-12 10.95-11.2 10.25-9.78 9.55-8.35 9.3-7.8 9.05-7.25 8.7-6.4L8.7-6.4Q8.05-4.9 8.05-3.9 8.05-2.9 8.63-2.3 9.2-1.7 9.9-1.6L9.9-1.6Q11.75-1.45 11.75-0.65L11.75-0.65Q11.75-0.3 11.6-0.13 11.45 0.05 10.9 0.05L10.9 0.05ZM18.8-28.5Q18.35-28.5 15.95-22.98 13.55-17.45 13.55-16.85 13.55-16.25 14-16.1 14.45-15.95 16.1-15.95L16.1-15.95 17.65-15.95 22.4-16Q24.35-16 24.35-16.73 24.35-17.45 21.9-22.98 19.45-28.5 18.8-28.5L18.8-28.5ZM46.55-17.25L46.55-20.1 46.6-25.5 46.6-27.8Q46.6-30 46.42-31.33 46.25-32.65 45.07-33.3 43.9-33.95 42.75-34 41.6-34.05 41.6-34.77 41.6-35.5 43-35.5L43-35.5 48.65-35.3 53.05-35.4Q54.4-35.4 54.4-34.7L54.4-34.7Q54.4-34.3 52.1-33.35L52.1-33.35Q50.5-32.7 50.5-27.6L50.5-27.6 50.35-9.1Q50.35-4.9 51.52-3.2 52.7-1.5 54-1.5L54-1.5 55-1.45Q55.35-1.45 55.7-1.28 56.05-1.1 56.05-0.7L56.05-0.7Q56.05 0 54.8 0L54.8 0 50.05-0.2 44.55 0.05Q42.3 0.05 42.3-0.7L42.3-0.7Q42.3-1.4 43.85-1.6L43.85-1.6Q44.45-1.65 45.1-2.23 45.75-2.8 45.92-3.53 46.1-4.25 46.32-9.58 46.55-14.9 46.55-17.25L46.55-17.25ZM79.14 0.3L75.59 0.2 72.04 0.3Q70.04 0.3 70.04-0.38 70.04-1.05 70.79-1.3L70.79-1.3Q70.84-1.3 70.99-1.35L70.99-1.35Q72.14-1.75 72.49-2.55 72.84-3.35 72.84-10.3L72.84-10.3 72.84-14.7Q72.84-16.15 72.49-17 72.14-17.85 71.84-18.05 71.54-18.25 70.82-18.38 70.09-18.5 69.77-18.63 69.44-18.75 69.44-19.03 69.44-19.3 69.57-19.45 69.69-19.6 70.07-19.78 70.44-19.95 70.84-20.1L70.84-20.1Q72.24-20.5 73.14-20.9 74.04-21.3 74.52-21.5 74.99-21.7 75.14-21.8L75.14-21.8Q75.49-21.95 75.99-21.95L75.99-21.95Q76.74-21.95 76.74-21L76.74-21 76.44-18.6 76.44-4.9Q76.44-3.4 76.92-2.55 77.39-1.7 77.92-1.5 78.44-1.3 79.14-1.25 79.84-1.2 80.04-1.2L80.04-1.2Q80.74-1.1 80.74-0.5L80.74-0.5Q80.74 0.35 79.89 0.35L79.89 0.35 79.14 0.3ZM74.74-26.65Q73.74-26.65 73.02-27.7 72.29-28.75 72.29-29.43 72.29-30.1 73.17-31.18 74.04-32.25 74.82-32.25 75.59-32.25 76.34-31.23 77.09-30.2 77.09-29.4 77.09-28.6 76.14-27.63 75.19-26.65 74.74-26.65L74.74-26.65ZM98.24-20.05L98.24-20.05 98.44-17.05Q98.44-16.2 98.24-15.9 98.04-15.6 97.67-15.6 97.29-15.6 96.87-16.32 96.44-17.05 95.92-17.9 95.39-18.75 94.22-19.48 93.04-20.2 91.54-20.2 90.04-20.2 89.09-19.48 88.14-18.75 88.14-17.9 88.14-17.05 88.29-16.53 88.44-16 88.82-15.6 89.19-15.2 89.47-14.93 89.74-14.65 90.39-14.35 91.04-14.05 91.37-13.93 91.69-13.8 92.44-13.5L92.44-13.5Q96.99-11.9 98.29-10.38 99.59-8.85 99.59-6 99.59-3.15 96.94-0.75L96.94-0.75Q95.14 0.8 91.99 0.8L91.99 0.8Q89.84 0.8 87.19-0.25L87.19-0.25Q86.44-0.55 86.32-0.58 86.19-0.6 85.92-0.7 85.64-0.8 85.52-0.83 85.39-0.85 85.19-0.95 84.99-1.05 84.92-1.13 84.84-1.2 84.74-1.35L84.74-1.35Q84.59-1.6 84.59-2.15L84.59-2.15 84.59-6.5Q84.59-7.05 84.82-7.43 85.04-7.8 85.44-7.8 85.84-7.8 86.02-7.58 86.19-7.35 86.34-6.65 86.49-5.95 86.64-5.65L86.64-5.65Q88.49-1.05 91.84-1.05L91.84-1.05Q93.39-1.05 94.79-1.88 96.19-2.7 96.19-4.48 96.19-6.25 95.04-7.35 93.89-8.45 92.24-9.08 90.59-9.7 88.94-10.38 87.29-11.05 86.14-12.38 84.99-13.7 84.99-15.7L84.99-15.7Q84.99-18.5 87.24-20.2 89.49-21.9 92.19-21.9 94.89-21.9 96.29-21.48 97.69-21.05 97.97-20.7 98.24-20.35 98.24-20.05ZM115.29-18.55L115.29-18.55 114.34-18.5Q113.49-18.5 113.49-19.2L113.49-19.2Q113.49-19.7 113.94-20.05L113.94-20.05Q115.84-21.3 117.74-23.8L117.74-23.8Q118.54-24.95 119.01-25.48 119.49-26 119.99-26 120.49-26 120.49-24.85L120.49-24.85Q120.49-24.85 120.29-22L120.29-22Q120.29-21.3 120.56-21.15 120.84-21 122.34-21L122.34-21 124.09-21Q126.34-21 126.84-21.25L126.84-21.25Q127.74-21.7 127.94-21.7L127.94-21.7Q128.44-21.7 128.44-21.15L128.44-21.15Q128.44-20.75 127.79-19.58 127.14-18.4 126.84-18.4L126.84-18.4Q124.59-18.4 123.69-18.5 122.79-18.6 122.49-18.63 122.19-18.65 121.96-18.68 121.74-18.7 121.64-18.7L121.64-18.7 121.54-18.75Q120.59-18.75 120.31-18.45 120.04-18.15 120.04-17.1L120.04-17.1 119.84-7.8Q119.84-4.55 120.66-3.28 121.49-2 124.14-2L124.14-2Q125.19-2 126.46-2.48 127.74-2.95 127.84-2.95L127.84-2.95Q128.34-2.95 128.34-2.3 128.34-1.65 126.61-0.58 124.89 0.5 122.89 0.5L122.89 0.5Q116.14 0.5 116.14-5.35L116.14-5.35 116.14-6.1 116.34-17.75Q116.34-18.25 116.14-18.4 115.94-18.55 115.29-18.55ZM135.83-0.25L135.83-0.25 132.28 0Q131.03 0 130.98-0.15 130.93-0.3 130.93-0.5L130.93-0.5Q130.93-1 131.53-1.15L131.53-1.15Q132.98-1.55 133.41-2.43 133.83-3.3 133.83-5L133.83-5 134.03-22.05 134.03-24.5Q134.03-31.3 133.73-32.8 133.43-34.3 131.93-34.3L131.93-34.3 131.28-34.3 131.08-34.35Q130.23-34.35 130.23-34.8 130.23-35.25 130.76-35.52 131.28-35.8 132.26-36.05 133.23-36.3 135.03-37.1 136.83-37.9 137.28-37.9L137.28-37.9Q137.93-37.9 137.93-36.75L137.93-36.75Q137.93-36.5 137.76-35.55 137.58-34.6 137.56-31.88 137.53-29.15 137.46-26.03 137.38-22.9 137.33-21.8L137.33-21.8Q137.23-19.7 137.23-18.85 137.23-18 137.63-18L137.63-18Q137.73-18 138.66-18.93 139.58-19.85 141.21-20.78 142.83-21.7 144.68-21.7L144.68-21.7Q148.73-21.7 150.98-19.3 153.23-16.9 153.23-11.85L153.23-11.85 153.23-4.6Q153.23-3.25 153.73-2.5 154.23-1.75 154.88-1.7L154.88-1.7Q157.58-1.45 157.58-0.65 157.58 0.15 156.03 0.15L156.03 0.15 151.83-0.1 147.98 0.05Q146.83 0.05 146.83-0.45L146.83-0.45Q146.83-1.35 148.18-1.35L148.18-1.35Q148.68-1.35 149.11-1.9 149.53-2.45 149.53-3.6L149.53-3.6 149.58-4.9 149.63-11.9Q149.63-14.95 147.78-17.18 145.93-19.4 143.51-19.4 141.08-19.4 138.58-17.45L138.58-17.45Q137.68-16.75 137.43-15.18 137.18-13.6 137.18-8.2L137.18-8.2 137.18-7.05Q137.18-4.8 137.53-3.4L137.53-3.4Q138.08-1.45 140.28-1.3L140.28-1.3Q140.98-1.25 141.36-1.13 141.73-1 141.73-0.6L141.73-0.6Q141.73 0 141.18 0L141.18 0 139.88-0.05Q138.58-0.1 137.26-0.18 135.93-0.25 135.83-0.25ZM170.58 0.95Q166.18 0.95 163.11-1.75 160.03-4.45 160.03-9.58 160.03-14.7 162.86-18.15 165.68-21.6 170.18-21.6L170.18-21.6Q172.28-21.6 174.01-20.85 175.73-20.1 176.68-19.03 177.63-17.95 178.28-16.75L178.28-16.75Q179.38-14.7 179.38-13.65L179.38-13.65Q179.38-12.75 177.33-12.75L177.33-12.75 164.48-12.75Q164.08-12.75 164.01-12.68 163.93-12.6 163.93-12.2L163.93-12.2Q163.93-7.5 166.46-4.8 168.98-2.1 172.38-2.1L172.38-2.1Q174.48-2.1 176.66-3.23 178.83-4.35 178.93-4.35L178.93-4.35Q179.43-4.35 179.43-3.9L179.43-3.9Q179.43-3.3 178.33-2.27 177.23-1.25 176.23-0.6L176.23-0.6Q173.83 0.95 170.58 0.95L170.58 0.95ZM164.88-13.95L164.88-13.95 173.68-14.25Q174.38-14.25 174.56-14.38 174.73-14.5 174.73-14.85L174.73-14.85Q174.73-16.35 173.33-18.35 171.93-20.35 169.43-20.35 166.93-20.35 165.58-18.38 164.23-16.4 164.23-14.65L164.23-14.65Q164.23-13.95 164.88-13.95ZM193.03-34.85L193.03-34.85Q193.03-35.2 193.43-35.45 193.83-35.7 194.33-35.7L194.33-35.7 195.68-35.7Q196.88-35.7 199.55-35.55 202.23-35.4 206.53-35.4L206.53-35.4 217.88-35.65Q218.73-35.65 218.73-34.45L218.73-34.45Q218.73-33.8 218.43-32.1 218.13-30.4 218.03-29.38 217.93-28.35 217.25-28.35 216.58-28.35 216.58-29.35L216.58-29.35Q216.58-32.65 214.28-32.8L214.28-32.8Q206.73-33.4 204.88-33.4 203.03-33.4 202.5-32.85 201.98-32.3 201.93-30.6L201.93-30.6 201.93-30.2Q201.78-27.5 201.78-21.85L201.78-21.85Q201.78-19.4 202.68-19.35L202.68-19.35 203.93-19.3 206.08-19.35 207.63-19.35Q210.63-19.35 211.6-19.53 212.58-19.7 213.2-20.13 213.83-20.55 214.08-20.95 214.33-21.35 214.43-21.9 214.53-22.45 214.68-22.7 214.83-22.95 215.28-22.95 215.73-22.95 215.83-22.8 215.93-22.65 215.93-22.23 215.93-21.8 215.7-20.4 215.48-19 215.48-18L215.48-18 215.83-13.9Q215.83-13.1 215.65-12.88 215.48-12.65 215.13-12.65L215.13-12.65Q214.28-12.65 214.08-13.9L214.08-13.9Q214.08-15 213.83-15.45L213.83-15.45Q213.33-16.15 212.8-16.38 212.28-16.6 210.48-16.8 208.68-17 208.13-17L208.13-17 203.78-17Q201.73-17 201.73-16.05L201.73-16.05 201.63-8.85 201.58-6.85Q201.58-5.85 201.78-4.85 201.98-3.85 202.95-2.75 203.93-1.65 205.5-1.65 207.08-1.65 207.08-0.75L207.08-0.75Q207.08-0.3 206.6-0.05 206.13 0.2 205.53 0.2L205.53 0.2 200.68-0.2 194.63 0.1Q193.63 0.1 193.63-0.45L193.63-0.45Q193.63-1.1 193.85-1.25 194.08-1.4 195.78-2L195.78-2Q197.08-2.45 197.38-4.7L197.38-4.7Q197.73-7.25 197.73-17.85L197.73-17.85 197.88-26.55 197.88-29.45Q197.88-32.75 195.53-33.85L195.53-33.85Q194.83-34.15 193.93-34.15 193.03-34.15 193.03-34.85ZM223.67-7.8L223.67-7.8 223.72-16.8Q223.72-17.8 223.2-18.4 222.67-19 222.22-19L222.22-19 221.32-19Q220.42-19 220.42-19.7 220.42-20.4 221.4-20.6 222.37-20.8 223.77-20.8L223.77-20.8 226.62-21.05Q227.47-21.05 227.62-20.7 227.77-20.35 227.77-18.95 227.77-17.55 227.65-15.13 227.52-12.7 227.52-9.75L227.52-9.75Q227.52-5.35 229.22-3.53 230.92-1.7 233.07-1.7L233.07-1.7Q236.27-1.7 237.72-3.05 239.17-4.4 239.17-7.8L239.17-7.8 239.07-14.7Q239.07-17.2 238.67-18.07 238.27-18.95 236.97-19.07 235.67-19.2 235.67-19.75L235.67-19.75Q235.67-20.9 240.07-20.9L240.07-20.9 241.87-21.15Q242.62-21.15 242.85-20.9 243.07-20.65 243.07-20.18 243.07-19.7 243.05-18.98 243.02-18.25 243-17.05 242.97-15.85 242.92-14.35L242.92-14.35Q242.82-11.35 242.82-7.65 242.82-3.95 243.12-2.85 243.42-1.75 244.22-1.75L244.22-1.75 245.52-1.8Q246.72-1.8 246.72-1.2 246.72-0.6 246.37-0.45 246.02-0.3 245.02-0.3 244.02-0.3 242-0.03 239.97 0.25 239.82 0.25L239.82 0.25Q239.47 0.25 239.25-1.03 239.02-2.3 238.95-2.3 238.87-2.3 237.97-1.5 237.07-0.7 235.4 0.1 233.72 0.9 231.72 0.9L231.72 0.9Q223.67 0.9 223.67-7.8ZM250.92-18.55L250.92-18.55 249.97-18.5Q249.12-18.5 249.12-19.2L249.12-19.2Q249.12-19.7 249.57-20.05L249.57-20.05Q251.47-21.3 253.37-23.8L253.37-23.8Q254.17-24.95 254.65-25.48 255.12-26 255.62-26 256.12-26 256.12-24.85L256.12-24.85Q256.12-24.85 255.92-22L255.92-22Q255.92-21.3 256.2-21.15 256.47-21 257.97-21L257.97-21 259.72-21Q261.97-21 262.47-21.25L262.47-21.25Q263.37-21.7 263.57-21.7L263.57-21.7Q264.07-21.7 264.07-21.15L264.07-21.15Q264.07-20.75 263.42-19.58 262.77-18.4 262.47-18.4L262.47-18.4Q260.22-18.4 259.32-18.5 258.42-18.6 258.12-18.63 257.82-18.65 257.6-18.68 257.37-18.7 257.27-18.7L257.27-18.7 257.17-18.75Q256.22-18.75 255.95-18.45 255.67-18.15 255.67-17.1L255.67-17.1 255.47-7.8Q255.47-4.55 256.3-3.28 257.12-2 259.77-2L259.77-2Q260.82-2 262.1-2.48 263.37-2.95 263.47-2.95L263.47-2.95Q263.97-2.95 263.97-2.3 263.97-1.65 262.25-0.58 260.52 0.5 258.52 0.5L258.52 0.5Q251.77 0.5 251.77-5.35L251.77-5.35 251.77-6.1 251.97-17.75Q251.97-18.25 251.77-18.4 251.57-18.55 250.92-18.55ZM269.57-7.8L269.57-7.8 269.62-16.8Q269.62-17.8 269.09-18.4 268.57-19 268.12-19L268.12-19 267.22-19Q266.32-19 266.32-19.7 266.32-20.4 267.29-20.6 268.27-20.8 269.67-20.8L269.67-20.8 272.52-21.05Q273.37-21.05 273.52-20.7 273.67-20.35 273.67-18.95 273.67-17.55 273.54-15.13 273.42-12.7 273.42-9.75L273.42-9.75Q273.42-5.35 275.12-3.53 276.82-1.7 278.97-1.7L278.97-1.7Q282.17-1.7 283.62-3.05 285.07-4.4 285.07-7.8L285.07-7.8 284.97-14.7Q284.97-17.2 284.57-18.07 284.17-18.95 282.87-19.07 281.57-19.2 281.57-19.75L281.57-19.75Q281.57-20.9 285.97-20.9L285.97-20.9 287.77-21.15Q288.52-21.15 288.74-20.9 288.97-20.65 288.97-20.18 288.97-19.7 288.94-18.98 288.92-18.25 288.89-17.05 288.87-15.85 288.82-14.35L288.82-14.35Q288.72-11.35 288.72-7.65 288.72-3.95 289.02-2.85 289.32-1.75 290.12-1.75L290.12-1.75 291.42-1.8Q292.62-1.8 292.62-1.2 292.62-0.6 292.27-0.45 291.92-0.3 290.92-0.3 289.92-0.3 287.89-0.03 285.87 0.25 285.72 0.25L285.72 0.25Q285.37 0.25 285.14-1.03 284.92-2.3 284.84-2.3 284.77-2.3 283.87-1.5 282.97-0.7 281.29 0.1 279.62 0.9 277.62 0.9L277.62 0.9Q269.57 0.9 269.57-7.8ZM296.27-18.15L296.27-18.15 295.72-18.2Q294.77-18.2 294.77-19L294.77-19Q294.77-19.55 295.44-19.83 296.12-20.1 297.94-20.68 299.77-21.25 300.82-21.73 301.87-22.2 302.07-22.2L302.07-22.2Q302.72-22.2 302.72-21.2L302.72-21.2 302.67-19.85Q302.67-18.05 302.79-17.88 302.92-17.7 303.04-17.7 303.17-17.7 303.82-18.7 304.47-19.7 305.67-20.73 306.87-21.75 308.04-21.75 309.22-21.75 310.47-20.93 311.72-20.1 311.72-19.28 311.72-18.45 311.32-17.75L311.32-17.75Q310.62-16.55 310.02-16.55L310.02-16.55Q309.62-16.55 308.59-17.15 307.57-17.75 306.22-17.75 304.87-17.75 303.69-16.65 302.52-15.55 302.52-14.65L302.52-14.65 302.52-9.45 302.57-5.1 302.62-4.2Q302.62-3.15 303.32-2.4 304.02-1.65 304.64-1.55 305.27-1.45 305.72-1.4 306.17-1.35 306.42-1.33 306.67-1.3 306.97-1.2L306.97-1.2Q307.52-1.1 307.52-0.48 307.52 0.15 306.92 0.15L306.92 0.15 302.67-0.1 297.47 0.15Q296.57 0.15 296.47-0.05 296.37-0.25 296.37-0.45L296.37-0.45Q296.37-1.1 297.02-1.3L297.02-1.3Q298.32-1.6 298.59-2.58 298.87-3.55 298.87-6.75L298.87-6.75 298.82-14.8 298.77-16.3Q298.77-16.85 298.62-17.2L298.62-17.2Q298.22-18.15 296.27-18.15ZM324.91 0.95Q320.51 0.95 317.44-1.75 314.36-4.45 314.36-9.58 314.36-14.7 317.19-18.15 320.01-21.6 324.51-21.6L324.51-21.6Q326.61-21.6 328.34-20.85 330.06-20.1 331.01-19.03 331.96-17.95 332.61-16.75L332.61-16.75Q333.71-14.7 333.71-13.65L333.71-13.65Q333.71-12.75 331.66-12.75L331.66-12.75 318.81-12.75Q318.41-12.75 318.34-12.68 318.26-12.6 318.26-12.2L318.26-12.2Q318.26-7.5 320.79-4.8 323.31-2.1 326.71-2.1L326.71-2.1Q328.81-2.1 330.99-3.23 333.16-4.35 333.26-4.35L333.26-4.35Q333.76-4.35 333.76-3.9L333.76-3.9Q333.76-3.3 332.66-2.27 331.56-1.25 330.56-0.6L330.56-0.6Q328.16 0.95 324.91 0.95L324.91 0.95ZM319.21-13.95L319.21-13.95 328.01-14.25Q328.71-14.25 328.89-14.38 329.06-14.5 329.06-14.85L329.06-14.85Q329.06-16.35 327.66-18.35 326.26-20.35 323.76-20.35 321.26-20.35 319.91-18.38 318.56-16.4 318.56-14.65L318.56-14.65Q318.56-13.95 319.21-13.95Z" opacity="1" transform="matrix(1,0,0,1,0,0)" fill="#096a2e" class="slogan-text-1" data-fill-palette-color="secondary" id="text-1"></path></svg></g></svg></g></svg></g></svg></g><g></g></svg></g><defs></defs></svg><rect width="395.52" height="231.13203874770636" fill="none" stroke="none" visibility="hidden"></rect></g></svg></g></svg>